<?xml version="1.0" encoding="UTF-8" standalone="no"?>
<svg
   xmlns:dc="http://purl.org/dc/elements/1.1/"
   xmlns:cc="http://creativecommons.org/ns#"
   xmlns:rdf="http://www.w3.org/1999/02/22-rdf-syntax-ns#"
   xmlns:svg="http://www.w3.org/2000/svg"
   xmlns="http://www.w3.org/2000/svg"
   viewBox="0 0 729.02002 240.94133"
   height="240.94133"
   width="729.02002"
   xml:space="preserve"
   id="svg2"
   version="1.1"><metadata
     id="metadata8"><rdf:RDF><cc:Work
         rdf:about=""><dc:format>image/svg+xml</dc:format><dc:type
           rdf:resource="http://purl.org/dc/dcmitype/StillImage" /></cc:Work></rdf:RDF></metadata><defs
     id="defs6"><clipPath
       id="clipPath18"
       clipPathUnits="userSpaceOnUse"><path
         id="path16"
         d="M 0,180.706 H 546.765 V 0 H 0 Z" /></clipPath></defs><g
     transform="matrix(1.3333333,0,0,-1.3333333,0,240.94133)"
     id="g10"><g
       id="g12"><g
         clip-path="url(#clipPath18)"
         id="g14"><g
           transform="translate(91.6666,138.1748)"
           id="g20"><path
             id="path22"
             style="fill:#ffffff;fill-opacity:1;fill-rule:nonzero;stroke:none"
             d="m 0,0 -18.262,-10.536 c -0.249,-0.143 -0.555,-0.143 -0.804,10e-4 l -70.656,40.801 c -0.536,0.31 -0.536,1.083 0,1.392 l 18.237,10.535 c 0.249,0.144 0.555,0.144 0.804,0 L 0,1.392 C 0.536,1.083 0.536,0.309 0,0" /></g><g
           transform="translate(71.1873,123.8607)"
           id="g24"><path
             id="path26"
             style="fill:#ffffff;fill-opacity:1;fill-rule:nonzero;stroke:none"
             d="m 0,0 v -21.311 c 0,-0.619 -0.67,-1.005 -1.205,-0.696 l -24.893,14.369 c -0.536,0.309 -1.206,-0.078 -1.206,-0.696 v -85.053 c 0,-0.619 -0.669,-1.006 -1.205,-0.697 l -17.823,10.283 c -0.249,0.143 -0.402,0.409 -0.402,0.696 V 3.803 c 0,0.287 -0.153,0.553 -0.402,0.696 l -22.91,13.228 c -0.249,0.144 -0.402,0.409 -0.402,0.696 v 21.324 c 0,0.619 0.67,1.006 1.205,0.696 L -0.402,0.696 C -0.153,0.552 0,0.287 0,0" /></g><g
           transform="translate(71.1873,96.5569)"
           id="g28"><path
             id="path30"
             style="fill:#ffffff;fill-opacity:1;fill-rule:nonzero;stroke:none"
             d="m 0,0 v -55.508 c 0,-0.287 -0.153,-0.552 -0.402,-0.696 l -21.933,-12.67 c -0.535,-0.309 -1.205,0.077 -1.205,0.696 v 80.836 c 0,0.618 0.669,1.005 1.205,0.696 L -0.402,0.696 C -0.153,0.553 0,0.287 0,0" /></g><g
           transform="translate(164.0899,104.4385)"
           id="g32"><path
             id="path34"
             style="fill:#ffffff;fill-opacity:1;fill-rule:nonzero;stroke:none"
             d="m 0,0 -40.613,-23.443 c -0.535,-0.309 -1.205,0.077 -1.205,0.696 v 14.639 c 0,0.287 0.153,0.552 0.402,0.696 l 27.928,16.123 c 0.248,0.144 0.555,0.144 0.803,0 L 0,1.392 C 0.536,1.083 0.536,0.309 0,0" /></g><g
           transform="translate(191.3547,168.3876)"
           id="g36"><path
             id="path38"
             style="fill:#ffffff;fill-opacity:1;fill-rule:nonzero;stroke:none"
             d="m 0,0 -94.223,-54.44 c -0.249,-0.144 -0.556,-0.144 -0.804,0 l -18.357,10.602 c -0.536,0.309 -0.536,1.082 0,1.392 l 94.263,54.413 c 0.249,0.144 0.555,0.144 0.804,0 L 0,1.392 C 0.535,1.083 0.536,0.309 0,0" /></g><g
           transform="translate(192.5595,163.3147)"
           id="g40"><path
             id="path42"
             style="fill:#ffffff;fill-opacity:1;fill-rule:nonzero;stroke:none"
             d="m 0,0 v -21.137 c 0,-0.288 -0.153,-0.553 -0.402,-0.696 l -73.234,-42.28 c -0.249,-0.144 -0.402,-0.409 -0.402,-0.696 v -24.718 l 0.027,0.026 49.212,28.41 c 0.536,0.309 1.205,-0.077 1.205,-0.696 v -21.445 c 0,-0.287 -0.153,-0.552 -0.402,-0.696 l -49.64,-28.654 c -0.249,-0.144 -0.402,-0.409 -0.402,-0.696 v -38.28 c 0,-0.287 -0.153,-0.552 -0.401,-0.696 l -18.304,-10.574 c -0.535,-0.31 -1.205,0.077 -1.205,0.695 v 108.827 c 0,0.287 0.153,0.552 0.402,0.696 L -1.205,0.696 C -0.67,1.005 0,0.619 0,0" /></g><g
           transform="translate(94.8612,110.1958)"
           id="g44"><path
             id="path46"
             style="fill:#ffffff;fill-opacity:1;fill-rule:nonzero;stroke:none"
             d="m 0,0 v -109.161 c 0,-0.619 -0.67,-1.005 -1.205,-0.696 l -18.317,10.575 c -0.249,0.144 -0.402,0.409 -0.402,0.696 V 10.575 c 0,0.619 0.67,1.005 1.205,0.696 L -1.708,1.451 -0.401,0.696 C -0.153,0.552 0,0.287 0,0" /></g><g
           transform="translate(271.3805,161.4917)"
           id="g48"><path
             id="path50"
             style="fill:#ffffff;fill-opacity:1;fill-rule:nonzero;stroke:none"
             d="M 0,0 H -20.087 V -63.901 H -38.294 V 0 H -58.381 V 17.15 H 0 Z" /></g><g
           transform="translate(285.2436,133.4173)"
           id="g52"><path
             id="path54"
             style="fill:#ffffff;fill-opacity:1;fill-rule:nonzero;stroke:none"
             d="M 0,0 H 27.722 C 25.96,6.578 20.439,10.689 13.862,10.689 7.166,10.689 1.997,6.578 0,0 M 45.695,-11.394 H -0.117 c 1.88,-6.696 7.166,-10.924 14.331,-10.924 5.755,0 10.571,2.584 12.568,5.99 H 44.99 c -4.346,-12.451 -16.211,-20.909 -31.128,-20.909 -18.443,0 -32.304,13.509 -32.304,31.364 0,17.855 13.861,31.363 32.304,31.363 18.324,0 32.303,-13.391 32.303,-31.598 0,-1.527 -0.118,-3.877 -0.47,-5.286" /></g><g
           transform="translate(337.7528,127.544)"
           id="g56"><path
             id="path58"
             style="fill:#ffffff;fill-opacity:1;fill-rule:nonzero;stroke:none"
             d="m 0,0 c 0,17.855 13.861,31.363 32.303,31.363 16.21,0 29.014,-10.572 31.598,-25.255 H 45.694 C 43.462,11.277 38.411,14.801 32.303,14.801 23.845,14.801 17.62,8.458 17.62,0 c 0,-8.457 6.225,-14.801 14.683,-14.801 6.108,0 11.159,3.524 13.391,8.693 H 63.901 C 61.317,-20.791 48.513,-31.363 32.303,-31.363 13.861,-31.363 0,-17.855 0,0" /></g><g
           transform="translate(469.6684,97.5902)"
           id="g60"><path
             id="path62"
             style="fill:#ffffff;fill-opacity:1;fill-rule:nonzero;stroke:none"
             d="M 0,0 H -17.15 V 43.345 H -41.113 V 0 H -58.264 V 59.908 H 0 Z" /></g><g
           transform="translate(526.7601,127.544)"
           id="g64"><path
             id="path66"
             style="fill:#ffffff;fill-opacity:1;fill-rule:nonzero;stroke:none"
             d="m 0,0 c 0,8.458 -6.226,14.801 -14.684,14.801 -8.457,0 -14.682,-6.343 -14.682,-14.801 0,-8.457 6.225,-14.801 14.682,-14.801 C -6.226,-14.801 0,-8.457 0,0 m -46.987,0 c 0,17.855 13.862,31.363 32.303,31.363 C 3.759,31.363 17.62,17.855 17.62,0 c 0,-17.855 -13.861,-31.363 -32.304,-31.363 -18.441,0 -32.303,13.508 -32.303,31.363" /></g><g
           transform="translate(236.0233,65.6936)"
           id="g68"><path
             id="path70"
             style="fill:#ffffff;fill-opacity:1;fill-rule:nonzero;stroke:none"
             d="m 0,0 v -15.388 h 22.201 v -17.15 H 0 V -63.901 H -18.207 V 17.15 h 44.989 l 0,-17.15 z" /></g><g
           transform="translate(304.8602,44.7846)"
           id="g72"><path
             id="path74"
             style="fill:#ffffff;fill-opacity:1;fill-rule:nonzero;stroke:none"
             d="M 0,0 H -16.68 V -42.992 H -33.83 V 16.915 H 0 Z" /></g><g
           transform="translate(344.9178,20.7042)"
           id="g76"><path
             id="path78"
             style="fill:#ffffff;fill-opacity:1;fill-rule:nonzero;stroke:none"
             d="m 0,0 v 6.226 h -9.985 c -4.464,0 -7.988,-2.82 -7.988,-6.696 0,-3.759 3.524,-6.695 7.988,-6.695 C -4.111,-7.165 0,-4.229 0,0 M 23.845,-3.289 V -18.912 H 2.115 v 5.638 c -3.759,-4.346 -9.75,-7.048 -16.681,-7.048 -11.981,0 -21.026,8.458 -21.026,19.5 0,11.159 9.045,19.499 21.026,19.499 H 0 v 6.578 H -31.246 V 40.996 H 17.15 V -3.289 Z" /></g><g
           transform="translate(471.3124,1.7921)"
           id="g80"><path
             id="path82"
             style="fill:#ffffff;fill-opacity:1;fill-rule:nonzero;stroke:none"
             d="M 0,0 H -17.15 V 43.345 H -38.763 V 0 H -55.914 V 43.345 H -77.527 V 0 H -94.678 V 59.908 H 0 Z" /></g><g
           transform="translate(499.8607,37.6193)"
           id="g84"><path
             id="path86"
             style="fill:#ffffff;fill-opacity:1;fill-rule:nonzero;stroke:none"
             d="M 0,0 H 27.722 C 25.96,6.578 20.439,10.689 13.862,10.689 7.166,10.689 1.997,6.578 0,0 M 45.695,-11.394 H -0.117 c 1.88,-6.696 7.166,-10.924 14.331,-10.924 5.755,0 10.571,2.584 12.568,5.99 H 44.99 c -4.346,-12.451 -16.211,-20.909 -31.128,-20.909 -18.443,0 -32.304,13.509 -32.304,31.364 0,17.855 13.861,31.363 32.304,31.363 18.324,0 32.303,-13.391 32.303,-31.598 0,-1.527 -0.118,-3.877 -0.47,-5.286" /></g></g></g></g></svg>